<svg width="48" height="48" viewBox="0 0 48 48" fill="none" xmlns="http://www.w3.org/2000/svg">
<rect width="48" height="48" rx="4" fill="#C4FFE9"/>
<path d="M29.826 26.798C29.826 27.9567 29.3567 28.9393 28.418 29.746C27.494 30.5527 26.3133 31.0293 24.876 31.176V33.64H23.05V31.176C21.6567 31.0147 20.5127 30.5673 19.618 29.834C18.7233 29.086 18.1953 28.14 18.034 26.996L20.476 26.49C20.7253 27.9127 21.5833 28.7487 23.05 28.998V24.114C22.346 23.9233 21.7667 23.74 21.312 23.564C20.872 23.3733 20.4027 23.1167 19.904 22.794C19.4053 22.4713 19.0313 22.0533 18.782 21.54C18.5327 21.0267 18.408 20.4253 18.408 19.736C18.408 18.6213 18.8407 17.668 19.706 16.876C20.586 16.0693 21.7007 15.5853 23.05 15.424V12.96H24.876V15.424C26.196 15.5853 27.2813 16.0473 28.132 16.81C28.9827 17.558 29.4887 18.4893 29.65 19.604L27.208 20.11C26.944 18.746 26.1667 17.91 24.876 17.602V22.134C25.6093 22.3393 26.2107 22.53 26.68 22.706C27.1493 22.882 27.6553 23.146 28.198 23.498C28.7407 23.85 29.144 24.3047 29.408 24.862C29.6867 25.4047 29.826 26.05 29.826 26.798ZM21.488 18.284C21.1067 18.6507 20.916 19.0907 20.916 19.604C20.916 20.1173 21.0993 20.528 21.466 20.836C21.8327 21.144 22.3607 21.408 23.05 21.628V17.558C22.39 17.6607 21.8693 17.9027 21.488 18.284ZM24.876 24.62V29.042C25.6387 28.9393 26.2327 28.69 26.658 28.294C27.098 27.898 27.318 27.4213 27.318 26.864C27.318 26.292 27.1053 25.8373 26.68 25.5C26.2693 25.1627 25.668 24.8693 24.876 24.62Z" fill="#0CD68A"/>
<path d="M28.418 29.746L28.3528 29.6702L28.3522 29.6707L28.418 29.746ZM24.876 31.176L24.8658 31.0765L24.776 31.0857V31.176H24.876ZM24.876 33.64V33.74H24.976V33.64H24.876ZM23.05 33.64H22.95V33.74H23.05V33.64ZM23.05 31.176H23.15V31.0869L23.0615 31.0767L23.05 31.176ZM19.618 29.834L19.5539 29.9107L19.5546 29.9113L19.618 29.834ZM18.034 26.996L18.0137 26.8981L17.9219 26.9171L17.935 27.01L18.034 26.996ZM20.476 26.49L20.5745 26.4727L20.5567 26.3712L20.4557 26.3921L20.476 26.49ZM23.05 28.998L23.0332 29.0966L23.15 29.1164V28.998H23.05ZM23.05 24.114H23.15V24.0375L23.0761 24.0175L23.05 24.114ZM21.312 23.564L21.2722 23.6558L21.2759 23.6573L21.312 23.564ZM19.904 22.794L19.9583 22.71L19.904 22.794ZM18.782 21.54L18.692 21.5837L18.782 21.54ZM19.706 16.876L19.7735 16.9498L19.7736 16.9497L19.706 16.876ZM23.05 15.424L23.0619 15.5233L23.15 15.5128V15.424H23.05ZM23.05 12.96V12.86H22.95V12.96H23.05ZM24.876 12.96H24.976V12.86H24.876V12.96ZM24.876 15.424H24.776V15.5125L24.8639 15.5233L24.876 15.424ZM28.132 16.81L28.0652 16.8845L28.066 16.8851L28.132 16.81ZM29.65 19.604L29.6703 19.7019L29.7625 19.6828L29.749 19.5897L29.65 19.604ZM27.208 20.11L27.1098 20.129L27.1291 20.2285L27.2283 20.2079L27.208 20.11ZM24.876 17.602L24.8992 17.5047L24.776 17.4753V17.602H24.876ZM24.876 22.134H24.776V22.2098L24.849 22.2303L24.876 22.134ZM26.68 22.706L26.6449 22.7996L26.68 22.706ZM28.198 23.498L28.2524 23.4141L28.198 23.498ZM29.408 24.862L29.3176 24.9048L29.319 24.9077L29.408 24.862ZM21.488 18.284L21.5573 18.3561L21.5587 18.3547L21.488 18.284ZM23.05 21.628L23.0196 21.7233L23.15 21.7649V21.628H23.05ZM23.05 17.558H23.15V17.4412L23.0346 17.4592L23.05 17.558ZM24.876 24.62L24.906 24.5246L24.776 24.4837V24.62H24.876ZM24.876 29.042H24.776V29.1564L24.8893 29.1411L24.876 29.042ZM26.658 28.294L26.5911 28.2197L26.5899 28.2208L26.658 28.294ZM26.68 25.5L26.6165 25.5773L26.6179 25.5784L26.68 25.5ZM29.726 26.798C29.726 27.9253 29.2711 28.881 28.3528 29.6702L28.4832 29.8218C29.4422 28.9976 29.926 27.988 29.926 26.798H29.726ZM28.3522 29.6707C27.4465 30.4614 26.2864 30.9316 24.8658 31.0765L24.8862 31.2755C26.3403 31.1271 27.5415 30.6439 28.4838 29.8213L28.3522 29.6707ZM24.776 31.176V33.64H24.976V31.176H24.776ZM24.876 33.54H23.05V33.74H24.876V33.54ZM23.15 33.64V31.176H22.95V33.64H23.15ZM23.0615 31.0767C21.6831 30.9171 20.5583 30.4755 19.6814 29.7567L19.5546 29.9113C20.467 30.6592 21.6302 31.1123 23.0385 31.2753L23.0615 31.0767ZM19.6821 29.7573C18.8063 29.025 18.2909 28.1013 18.133 26.982L17.935 27.01C18.0998 28.1787 18.6404 29.147 19.5539 29.9107L19.6821 29.7573ZM18.0543 27.0939L20.4963 26.5879L20.4557 26.3921L18.0137 26.8981L18.0543 27.0939ZM20.3775 26.5073C20.505 27.2349 20.7898 27.8202 21.2367 28.2556C21.6834 28.6909 22.2848 28.9693 23.0332 29.0966L23.0668 28.8994C22.3486 28.7773 21.7876 28.5131 21.3763 28.1124C20.9652 27.7118 20.6963 27.1677 20.5745 26.4727L20.3775 26.5073ZM23.15 28.998V24.114H22.95V28.998H23.15ZM23.0761 24.0175C22.374 23.8273 21.7983 23.645 21.3481 23.4707L21.2759 23.6573C21.735 23.835 22.318 24.0193 23.0239 24.2105L23.0761 24.0175ZM21.3518 23.4722C20.9178 23.2842 20.4534 23.0304 19.9583 22.71L19.8497 22.878C20.3519 23.2029 20.8262 23.4625 21.2722 23.6558L21.3518 23.4722ZM19.9583 22.71C19.4743 22.3969 19.113 21.9925 18.872 21.4963L18.692 21.5837C18.9497 22.1141 19.3363 22.5458 19.8497 22.878L19.9583 22.71ZM18.872 21.4963C18.6305 20.9991 18.508 20.4133 18.508 19.736H18.308C18.308 20.4374 18.4349 21.0542 18.692 21.5837L18.872 21.4963ZM18.508 19.736C18.508 18.651 18.9277 17.7239 19.7735 16.9498L19.6385 16.8022C18.7537 17.6121 18.308 18.5917 18.308 19.736H18.508ZM19.7736 16.9497C20.6361 16.1591 21.7303 15.6825 23.0619 15.5233L23.0381 15.3247C21.671 15.4882 20.5359 15.9796 19.6384 16.8023L19.7736 16.9497ZM23.15 15.424V12.96H22.95V15.424H23.15ZM23.05 13.06H24.876V12.86H23.05V13.06ZM24.776 12.96V15.424H24.976V12.96H24.776ZM24.8639 15.5233C26.167 15.6825 27.2322 16.1376 28.0652 16.8845L28.1988 16.7355C27.3305 15.9571 26.225 15.4881 24.8881 15.3247L24.8639 15.5233ZM28.066 16.8851C28.8989 17.6175 29.3931 18.5273 29.551 19.6183L29.749 19.5897C29.5842 18.4513 29.0664 17.4985 28.198 16.7349L28.066 16.8851ZM29.6297 19.5061L27.1877 20.0121L27.2283 20.2079L29.6703 19.7019L29.6297 19.5061ZM27.3062 20.091C27.1714 19.3946 26.9042 18.8263 26.5002 18.3919C26.0961 17.9572 25.5605 17.6625 24.8992 17.5047L24.8528 17.6993C25.4821 17.8495 25.9806 18.1268 26.3538 18.5281C26.7272 18.9297 26.9806 19.4614 27.1098 20.129L27.3062 20.091ZM24.776 17.602V22.134H24.976V17.602H24.776ZM24.849 22.2303C25.5809 22.4352 26.1792 22.625 26.6449 22.7996L26.7151 22.6124C26.2421 22.435 25.6378 22.2435 24.903 22.0377L24.849 22.2303ZM26.6449 22.7996C27.1058 22.9725 27.6053 23.2328 28.1436 23.5819L28.2524 23.4141C27.7053 23.0592 27.1928 22.7915 26.7151 22.6124L26.6449 22.7996ZM28.1436 23.5819C28.6715 23.9243 29.062 24.3651 29.3176 24.9048L29.4984 24.8192C29.226 24.2443 28.8099 23.7757 28.2524 23.4141L28.1436 23.5819ZM29.319 24.9077C29.589 25.4334 29.726 26.0623 29.726 26.798H29.926C29.926 26.0377 29.7843 25.376 29.497 24.8163L29.319 24.9077ZM21.4187 18.2119C21.0184 18.5968 20.816 19.0625 20.816 19.604H21.016C21.016 19.1188 21.1949 18.7045 21.5573 18.3561L21.4187 18.2119ZM20.816 19.604C20.816 20.1445 21.0106 20.5841 21.4017 20.9126L21.5303 20.7594C21.1881 20.4719 21.016 20.0902 21.016 19.604H20.816ZM21.4017 20.9126C21.7821 21.2321 22.3236 21.5011 23.0196 21.7233L23.0804 21.5327C22.3978 21.3149 21.8833 21.0559 21.5303 20.7594L21.4017 20.9126ZM23.15 21.628V17.558H22.95V21.628H23.15ZM23.0346 17.4592C22.3587 17.5643 21.8169 17.8137 21.4173 18.2133L21.5587 18.3547C21.9218 17.9916 22.4213 17.757 23.0654 17.6568L23.0346 17.4592ZM24.776 24.62V29.042H24.976V24.62H24.776ZM24.8893 29.1411C25.6659 29.0366 26.2814 28.7812 26.7261 28.3672L26.5899 28.2208C26.1839 28.5988 25.6114 28.8421 24.8627 28.9429L24.8893 29.1411ZM26.7249 28.3683C27.1845 27.9547 27.418 27.4516 27.418 26.864H27.218C27.218 27.3911 27.0115 27.8413 26.5911 28.2197L26.7249 28.3683ZM27.418 26.864C27.418 26.2634 27.1928 25.7791 26.7421 25.4216L26.6179 25.5784C27.0178 25.8956 27.218 26.3206 27.218 26.864H27.418ZM26.7435 25.4227C26.319 25.074 25.7041 24.7759 24.906 24.5246L24.846 24.7154C25.6319 24.9628 26.2197 25.2513 26.6165 25.5773L26.7435 25.4227Z" fill="#0CD68A"/>
</svg>
